PathFileType	4	(X/Y/Z)	/Users/niels/Desktop/University/Third Semester/Perception and Action/Exam/Gymnastics Motion Tracking/Code for Gym Tracking/Analyzed Data/Webcam_Backflip/id2_1_baseline_Sports2D/id2_1_baseline_Sports2D_px_person00.trc
DataRate	CameraRate	NumFrames	NumMarkers	Units	OrigDataRate	OrigDataStartFrame	OrigNumFrames
29.872881355932204	29.872881355932204	7	22	m	29.872881355932204	147	236
Frame#	Time	Hip			RHip			RKnee			RAnkle			RBigToe			RSmallToe			RHeel			LHip			LKnee			LAnkle			LBigToe			LSmallToe			LHeel			Neck			Head			Nose			RShoulder			RElbow			RWrist			LShoulder			LElbow			LWrist		
		X1	Y1	Z1	X2	Y2	Z2	X3	Y3	Z3	X4	Y4	Z4	X5	Y5	Z5	X6	Y6	Z6	X7	Y7	Z7	X8	Y8	Z8	X9	Y9	Z9	X10	Y10	Z10	X11	Y11	Z11	X12	Y12	Z12	X13	Y13	Z13	X14	Y14	Z14	X15	Y15	Z15	X16	Y16	Z16	X17	Y17	Z17	X18	Y18	Z18	X19	Y19	Z19	X20	Y20	Z20	X21	Y21	Z21	X22	Y22	Z22
147	4.920851063829787	0.8723097813222248	-0.5759567370642351	0.0	0.8656086276244441	-0.5760053475786114	0.0	0.8634029910044417	-0.6874463285765531	0.0	0.8477225269942597	-0.8062526657338857	0.0	0.8886605869654677	-0.8222497679100154	0.0	0.873298333854609	-0.826583092660704	0.0	0.8390099396883262	-0.824251413858638	0.0	0.8801206056277451	-0.5770323851672319	0.0	0.8742188009863978	-0.6876262922904215	0.0	0.8573404882060658	-0.7988915979422649	0.0	0.9011352759226193	-0.8175889679693424	0.0	0.8984804923459401	-0.81385657645494	0.0	0.8513535818426883	-0.8156585135997317	0.0	0.868989037265865	-0.41985484657740735	0.0	0.8839489917062001	-0.35025204443178964	0.0	0.8857463778875707	-0.389065292217827	0.0	0.8451037526764181	-0.44217641236820493	0.0	0.8260721042463995	-0.5145941772735939	0.0	0.8333236436287345	-0.5930744692895676	0.0	0.8777853033090113	-0.4461915515183159	0.0	0.863207273442094	-0.5133660081308892	0.0	0.8736421165446862	-0.5864245607580648	0.0
148	4.954326241134751	0.8726405123499499	-0.5740001159350222	0.0	0.8661485439496914	-0.5742069191414744	0.0	0.8640210081653713	-0.685568378834081	0.0	0.8478273987818783	-0.8045284057131475	0.0	0.8879456410592267	-0.8212774858660077	0.0	0.8724161714034314	-0.825749848737325	0.0	0.8389222796955814	-0.8228721250613349	0.0	0.8805407831145765	-0.5754367097267422	0.0	0.8743038250273021	-0.6857695543726813	0.0	0.8572917737281823	-0.797398568760794	0.0	0.9003463872399973	-0.8167356895603267	0.0	0.8980655592746688	-0.8129612231810915	0.0	0.8508404624626743	-0.8146974211403748	0.0	0.8684602807303469	-0.41864191168014603	0.0	0.883957859128299	-0.34847389686450075	0.0	0.8855277172711036	-0.38758790640478585	0.0	0.8454307271250575	-0.44043867738779097	0.0	0.8261225989870947	-0.5130096634898366	0.0	0.8338040637225956	-0.5913390123227421	0.0	0.8769302285012962	-0.44443036609327746	0.0	0.8626079061736329	-0.5114083098663943	0.0	0.8739749338436387	-0.5842890436616532	0.0
149	4.987801418439716	0.8728824185493782	-0.5731295060180943	0.0	0.8664836202377613	-0.5735156634909996	0.0	0.8644486620014415	-0.6848420168625291	0.0	0.8479708273133532	-0.8038719449272149	0.0	0.8878161485222252	-0.8212002197865673	0.0	0.8724275964922447	-0.8258243403505452	0.0	0.839035745597931	-0.8225727902226182	0.0	0.8807079775072418	-0.5749010144160839	0.0	0.8741856021676586	-0.6851080526205572	0.0	0.8572632896515969	-0.7969914164604793	0.0	0.8996106951256542	-0.8168697296035291	0.0	0.8975620091938323	-0.8131048027621169	0.0	0.8505330235983948	-0.814725387594716	0.0	0.8679670348954781	-0.4181680872042773	0.0	0.8838027211132962	-0.34795956065594824	0.0	0.8853578144433774	-0.38710135115362	0.0	0.8456234352134462	-0.43967838974056056	0.0	0.8267944662210078	-0.5123821767350571	0.0	0.8350920422428367	-0.590640138409151	0.0	0.8761298386101497	-0.44365612470965243	0.0	0.8622758751087181	-0.5105805739219323	0.0	0.8743436115704976	-0.5834617375264557	0.0
150	5.0212765957446805	0.8729468656499881	-0.5734606862497795	0.0	0.8665410819684164	-0.5740184239119829	0.0	0.8646384174293005	-0.6853348727655015	0.0	0.8481304604453853	-0.8043392921687056	0.0	0.8882741105257265	-0.8219816269933874	0.0	0.8732905750995734	-0.8267218369370836	0.0	0.8393036639789409	-0.8233626708087165	0.0	0.8805767686246107	-0.5754908415342801	0.0	0.8738790572435395	-0.6856566594551783	0.0	0.8572196278087947	-0.7976787023985779	0.0	0.8990273529834787	-0.8179263699378059	0.0	0.8970000618441359	-0.8141691808695708	0.0	0.8504642432953967	-0.8156347531367344	0.0	0.8675300839497002	-0.41844573657868833	0.0	0.883442773705475	-0.3486866556182574	0.0	0.8852003973868314	-0.38763305317796226	0.0	0.8456341355991418	-0.43995843131550705	0.0	0.8280356213626794	-0.5127923338474231	0.0	0.8372032030711563	-0.5910057809569356	0.0	0.8754573617283271	-0.4439200790736979	0.0	0.8622586130047077	-0.5109764011814967	0.0	0.8747030513912123	-0.5839869599819159	0.0
151	5.054751773049644	0.8727141244742187	-0.5750520314467042	0.0	0.8662599620773619	-0.5757458035388349	0.0	0.8646254953711249	-0.6869586890621617	0.0	0.8482659334490221	-0.8058410936192185	0.0	0.8890582270612231	-0.8235620023639703	0.0	0.8745678511411149	-0.8283463081322722	0.0	0.8396049753419498	-0.8250939020059557	0.0	0.8800824614261231	-0.5772472086764283	0.0	0.8734115569097227	-0.687296826594373	0.0	0.8571057293058499	-0.7993598097804991	0.0	0.8987085560624245	-0.8197468702948741	0.0	0.8965015817831056	-0.8159665987139546	0.0	0.8504391863624343	-0.8173002710724835	0.0	0.8671092255535956	-0.4195432592642303	0.0	0.8828723481749422	-0.35036307560460306	0.0	0.8849768862641528	-0.38905197109328504	0.0	0.8455296649451105	-0.4412461452087732	0.0	0.8297505041933538	-0.5142587745985652	0.0	0.840173047611528	-0.5923581104627055	0.0	0.8748604010188907	-0.4452037028834841	0.0	0.8625265067103258	-0.5125733212747624	0.0	0.8751592127815685	-0.5856938719563181	0.0
152	5.088226950354609	0.8720869365053022	-0.577795699384396	0.0	0.8656220673751205	-0.5785844751612722	0.0	0.8644935310880525	-0.6894972778055396	0.0	0.8483466605922904	-0.8081550425452826	0.0	0.889824454636374	-0.8257922187618935	0.0	0.8757102607757747	-0.8305355720352897	0.0	0.8398190194323918	-0.8274781267586269	0.0	0.8792016293486687	-0.5800728154641563	0.0	0.8728442850194926	-0.689831672203315	0.0	0.8568961736886125	-0.8017781125003666	0.0	0.898784872524935	-0.8220425962046863	0.0	0.8962494994326531	-0.818234886637134	0.0	0.850200349771039	-0.819529966673522	0.0	0.8666586291861318	-0.42150036579964717	0.0	0.8821455857951169	-0.3526171549483838	0.0	0.8846612619387292	-0.3911484232269353	0.0	0.8454299391552312	-0.44341630951957306	0.0	0.8318431828782593	-0.5167160257621374	0.0	0.844031539744354	-0.5945051122091225	0.0	0.874250873795328	-0.44740179184746	0.0	0.8630995214270364	-0.5152238429707308	0.0	0.8759992915312077	-0.5882465452004256	0.0
153	5.1217021276595736	0.8710405533343752	-0.5813535969842701	0.0	0.864674554562965	-0.582214061255407	0.0	0.8643266309485561	-0.692646927838836	0.0	0.8483612698135254	-0.8109847929153866	0.0	0.8903783770771415	-0.8284163717503217	0.0	0.876446934264007	-0.8330661964694155	0.0	0.8399015227440568	-0.8301978413223963	0.0	0.8779974414027247	-0.5836477549667473	0.0	0.8722474749923064	-0.6929875105997279	0.0	0.8566039470436235	-0.8046004887125318	0.0	0.8993273527143585	-0.8244980725752484	0.0	0.8963640401367509	-0.8207010608219412	0.0	0.8496652117730816	-0.8220995765670686	0.0	0.866181358318889	-0.4241938549960088	0.0	0.8813671637767039	-0.35518876680906536	0.0	0.8843215294844144	-0.3937139633414754	0.0	0.8454006703135684	-0.4462697057090663	0.0	0.8342569204179517	-0.5199751074280882	0.0	0.8487740880860122	-0.5971980115253134	0.0	0.8736086983117428	-0.4502842924290418	0.0	0.8641450387554178	-0.5186931444027248	0.0	0.8775889731875745	-0.5913126151655209	0.0
